HIERARCHY
ROOT Hips
{
	OFFSET 0.000000 0.000000 0.000000
	CHANNELS 6 Xposition Yposition Zposition Zrotation Yrotation Xrotation 
	JOINT LHipJoint
	{
		OFFSET 0.000000 0.000000 0.000000
		CHANNELS 3 Zrotation Yrotation Xrotation
		JOINT LeftUpLeg
		{
			OFFSET 1.363060 -1.794630 0.839290
			CHANNELS 3 Zrotation Yrotation Xrotation
			JOINT LeftLeg
			{
				OFFSET 2.448110 -6.726130 0.000000
				CHANNELS 3 Zrotation Yrotation Xrotation
				JOINT LeftFoot
				{
					OFFSET 2.562200 -7.039590 0.000000
					CHANNELS 3 Zrotation Yrotation Xrotation
					JOINT LeftToeBase
					{
						OFFSET 0.157640 -0.433110 2.322550
						CHANNELS 3 Zrotation Yrotation Xrotation
						End Site
						{
							OFFSET 0.000000 0.000000 0.000000
						}
					}
				}
			}
		}
	}
	JOINT RHipJoint
	{
		OFFSET 0.000000 0.000000 0.000000
		CHANNELS 3 Zrotation Yrotation Xrotation
		JOINT RightUpLeg
		{
			OFFSET -1.305520 -1.794630 0.839290
			CHANNELS 3 Zrotation Yrotation Xrotation
			JOINT RightLeg
			{
				OFFSET -2.542530 -6.985550 0.000000
				CHANNELS 3 Zrotation Yrotation Xrotation
				JOINT RightFoot
				{
					OFFSET -2.568260 -7.056230 0.000000
					CHANNELS 3 Zrotation Yrotation Xrotation
					JOINT RightToeBase
					{
						OFFSET -0.164730 -0.452590 2.363150
						CHANNELS 3 Zrotation Yrotation Xrotation
						End Site
						{
							OFFSET 0.000000 0.000000 0.000000
						}
					}
				}
			}
		}
	}
	JOINT LowerBack
	{
		OFFSET 0.000000 0.000000 0.000000
		CHANNELS 3 Zrotation Yrotation Xrotation
		JOINT Spine
		{
			OFFSET 0.028270 2.035590 -0.193380
			CHANNELS 3 Zrotation Yrotation Xrotation
			JOINT Spine1
			{
				OFFSET 0.056720 2.048850 -0.042750
				CHANNELS 3 Zrotation Yrotation Xrotation
				JOINT Neck
				{
					OFFSET 0.000000 0.000000 0.000000
					CHANNELS 3 Zrotation Yrotation Xrotation
					JOINT Neck1
					{
						OFFSET -0.054170 1.746240 0.172020
						CHANNELS 3 Zrotation Yrotation Xrotation
						JOINT Head
						{
							OFFSET 0.104070 1.761360 -0.123970
							CHANNELS 3 Zrotation Yrotation Xrotation
							End Site
							{
								OFFSET 0.000000 0.000000 0.000000
							}
						}
					}
				}
				JOINT LeftShoulder
				{
					OFFSET 0.000000 0.000000 0.000000
					CHANNELS 3 Zrotation Yrotation Xrotation
					JOINT LeftArm
					{
						OFFSET 3.362410 1.200890 -0.311210
						CHANNELS 3 Zrotation Yrotation Xrotation
						JOINT LeftForeArm
						{
							OFFSET 4.983000 -0.000000 -0.000000
							CHANNELS 3 Zrotation Yrotation Xrotation
							JOINT LeftHand
							{
								OFFSET 3.483560 -0.000000 -0.000000
								CHANNELS 3 Zrotation Yrotation Xrotation
								JOINT LeftFingerBase
								{
									OFFSET 0.000000 0.000000 0.000000
									CHANNELS 3 Zrotation Yrotation Xrotation
									JOINT LeftHandIndex1
									{
										OFFSET 0.715260 -0.000000 -0.000000
										CHANNELS 3 Zrotation Yrotation Xrotation
										End Site
										{
											OFFSET 0.000000 0.000000 0.000000
										}
									}
								}
								JOINT LThumb
								{
									OFFSET 0.000000 0.000000 0.000000
									CHANNELS 3 Zrotation Yrotation Xrotation
									End Site
									{
										OFFSET 0.000000 0.000000 0.000000
									}
								}
							}
						}
					}
				}
				JOINT RightShoulder
				{
					OFFSET 0.000000 0.000000 0.000000
					CHANNELS 3 Zrotation Yrotation Xrotation
					JOINT RightArm
					{
						OFFSET -3.136600 1.374050 -0.404650
						CHANNELS 3 Zrotation Yrotation Xrotation
						JOINT RightForeArm
						{
							OFFSET -5.241900 -0.000000 -0.000000
							CHANNELS 3 Zrotation Yrotation Xrotation
							JOINT RightHand
							{
								OFFSET -3.444170 -0.000000 -0.000000
								CHANNELS 3 Zrotation Yrotation Xrotation
								JOINT RightFingerBase
								{
									OFFSET 0.000000 0.000000 0.000000
									CHANNELS 3 Zrotation Yrotation Xrotation
									JOINT RightHandIndex1
									{
										OFFSET -0.622530 -0.000000 -0.000000
										CHANNELS 3 Zrotation Yrotation Xrotation
										End Site
										{
											OFFSET 0.000000 0.000000 0.000000
										}
									}
								}
								JOINT RThumb
								{
									OFFSET 0.000000 0.000000 0.000000
									CHANNELS 3 Zrotation Yrotation Xrotation
									End Site
									{
										OFFSET 0.000000 0.000000 0.000000
									}
								}
							}
						}
					}
				}
			}
		}
	}
}
MOTION
Frames: 9
Frame Time: 0.008333
4.283889 16.416366 12.049399 179.174234 1.781369 -178.573035 -2.258244 -2.096898 -4.340021 -7.564357 -2.828727 -28.780922 4.847776 19.645000 56.994408 -0.444953 5.005416 13.832710 -5.896104 -3.614006 -9.739246 0.416291 5.729220 -9.423626 13.310959 -14.596111 -5.359451 14.542482 -1.109401 19.713357 -5.117306 0.011134 -17.701051 -8.570207 2.280331 15.122461 -0.498350 -1.837989 20.440719 2.200993 1.416348 -10.366823 -5.572984 1.519731 8.875791 1.690485 -0.283436 -18.911207 2.561055 -0.419279 20.339826 3.390237 -1.306619 15.067111 8.946276 3.417898 0.962046 -83.066490 -28.052586 -2.973702 -14.348719 -11.994866 7.770169 12.870317 -8.866177 0.049200 0.000002 -0.000001 0.000002 -0.000000 0.000000 -0.000000 0.000000 -0.000000 0.000000 -0.835349 0.412147 4.048539 71.955759 17.673207 -18.954271 22.964642 21.527783 14.207637 1.659670 9.760141 1.515429 -0.000005 0.000004 -0.000002 -0.000000 -0.000000 -0.000000 -0.000000 0.000000 -0.000000 
4.291411 16.408108 11.891922 179.024223 1.964404 -178.689362 -2.151865 -1.940622 -4.244549 -8.101939 -3.036107 -29.254115 4.189655 19.093541 55.384774 -0.427729 4.839104 12.338226 -5.525061 -4.040193 -8.515699 0.408741 5.741281 -9.425916 12.966166 -15.088274 -4.694644 14.818816 -0.835593 19.915101 -5.281200 0.176545 -18.209794 -7.829549 1.595429 13.989634 -0.531188 -1.933262 20.320956 2.136455 1.327582 -10.264727 -5.880783 1.515875 9.006369 1.801876 -0.255564 -18.939156 2.545498 -0.416263 20.318179 3.372690 -1.284677 15.085082 8.932439 3.752140 0.943314 -83.082295 -27.006183 -3.774781 -14.282325 -11.235717 7.091000 13.509868 -8.539520 -0.017964 0.000002 -0.000001 0.000002 -0.000000 0.000000 -0.000000 0.000000 0.000000 0.000000 -0.807078 0.645855 4.097389 71.847232 18.240182 -18.649590 23.020448 22.328531 13.530026 2.431304 8.994197 1.431859 -0.000005 0.000004 -0.000002 -0.000000 -0.000000 0.000000 -0.000000 0.000000 0.000000 
4.303333 16.405706 11.739715 178.836517 2.157098 -178.661919 -2.257405 -1.827041 -4.179027 -8.414846 -3.309923 -29.649021 3.660251 18.709433 53.348934 -0.346730 4.612067 10.592779 -5.729092 -4.890593 -8.250717 0.746598 5.860365 -9.414818 12.195680 -15.073407 -4.144499 15.190627 -0.704237 20.235029 -5.848701 -0.113340 -18.878303 -7.364062 1.676242 13.016168 -0.884204 -1.973268 20.432014 2.111094 1.536906 -10.380830 -6.233724 1.819433 9.031990 2.056267 -0.302953 -18.979865 2.716472 -0.533003 20.277845 3.139825 -1.275997 15.176454 9.056285 3.419661 0.823391 -82.881866 -25.871775 -4.552898 -14.130722 -10.737721 6.520492 13.142171 -8.060710 0.003771 0.000002 -0.000001 0.000002 -0.000000 0.000000 0.000000 0.000000 0.000000 -0.000000 -0.362007 0.241381 4.318272 71.652886 18.976851 -17.758827 22.937714 23.166439 9.871182 4.919709 5.661168 1.134213 -0.000005 0.000004 -0.000002 -0.000000 -0.000000 0.000000 -0.000000 0.000000 0.000000 
4.309850 16.380030 11.583784 178.787186 2.259262 -178.777646 -1.985324 -1.619377 -4.156215 -8.794078 -4.284545 -29.637577 3.226040 18.908474 51.189895 -0.342944 4.411661 8.829671 -4.736463 -4.128324 -6.619161 0.513371 5.895151 -9.535357 12.192213 -15.259941 -3.349093 15.407651 -0.688866 20.430027 -6.460845 -0.199286 -19.594261 -7.286938 2.177762 12.564223 -0.969300 -2.084825 20.411678 2.036378 1.488696 -10.187952 -6.778923 1.949631 9.362456 2.479430 -0.290418 -19.257466 2.903435 -0.603989 19.980594 2.882461 -1.082612 14.945830 9.564002 3.627125 0.633327 -82.912939 -24.955658 -5.104718 -14.012466 -10.286354 5.317305 12.648329 -6.642780 0.001474 0.000002 -0.000001 0.000002 0.000000 0.000000 -0.000000 0.000000 -0.000000 0.000000 -0.117647 0.074671 4.411493 71.657798 19.994005 -17.636371 23.259133 23.654013 10.715410 4.467148 6.122713 1.174501 -0.000005 0.000004 -0.000002 0.000000 -0.000000 0.000000 -0.000000 -0.000000 0.000000 
4.315511 16.359760 11.424444 178.693655 2.442994 -178.854454 -1.864351 -1.325137 -4.091453 -9.270958 -4.902309 -29.767609 2.887711 18.659027 48.978282 -0.389648 4.234647 7.386492 -4.558219 -3.736463 -6.553682 0.418490 5.856943 -9.590193 12.032209 -15.436613 -2.691664 15.345483 -1.282002 20.465798 -7.048435 0.547380 -20.070013 -8.220611 3.881198 13.457242 -1.122291 -2.248096 20.351083 1.993458 1.397730 -10.047605 -6.940652 1.934052 9.568842 2.517501 -0.273270 -19.387079 3.033453 -0.592623 19.763804 2.883539 -0.960082 14.231740 9.508057 4.019005 0.561253 -82.851554 -23.954335 -5.459387 -13.798901 -9.886069 4.094852 13.206778 -5.408446 -0.065547 0.000002 -0.000001 0.000002 0.000000 0.000000 0.000000 0.000000 0.000000 0.000000 -0.244473 0.256833 4.494735 71.609888 20.820289 -17.417734 23.490311 24.190977 11.478141 3.909733 6.490138 1.195795 -0.000005 0.000004 -0.000002 0.000000 0.000000 0.000000 0.000000 0.000000 0.000000 
4.319775 16.355255 11.268183 178.546758 2.632239 -178.768772 -1.964694 -1.194317 -4.060212 -9.520981 -5.346041 -29.889396 2.419971 18.319963 46.412793 -0.349277 4.135176 6.223121 -4.965130 -4.267458 -7.021063 0.593158 5.903967 -9.558992 11.501500 -15.629065 -2.279855 15.568398 -1.226709 20.719356 -7.473944 0.581615 -20.580802 -8.163400 3.920961 13.316742 -1.303781 -2.383481 20.349155 1.963714 1.412107 -10.110059 -6.604287 1.888035 9.555946 2.064194 -0.315344 -19.353116 3.085367 -0.572110 19.696854 2.944554 -1.058114 13.955928 8.805251 4.145531 0.562768 -82.688717 -22.848638 -6.029116 -13.589963 -9.398457 3.785380 14.538251 -5.593831 -0.148247 0.000002 -0.000001 0.000002 0.000000 -0.000000 0.000000 0.000000 0.000000 0.000000 -0.677416 0.465177 4.441974 71.401984 21.226858 -17.180358 23.607984 24.735822 13.006327 3.382207 7.584133 1.348630 -0.000005 0.000004 -0.000002 -0.000000 0.000000 0.000000 -0.000000 0.000000 0.000000 
4.328228 16.344444 11.111396 178.435970 2.548664 -178.775271 -1.725649 -1.006946 -4.066157 -10.085311 -6.221217 -29.549979 1.554310 17.781834 43.460626 -0.132332 4.385390 4.726193 -5.326705 -4.292918 -7.831329 0.548331 5.986568 -9.632964 11.163596 -16.163611 -1.521591 15.675523 -1.428468 20.491215 -7.563735 0.932056 -21.062775 -7.678994 3.636961 12.480540 -1.419120 -2.520047 20.454604 1.992068 1.251045 -10.089917 -6.529343 1.738140 9.641337 1.978001 -0.291992 -19.448787 3.038873 -0.549396 19.538353 2.921298 -1.051902 14.127130 8.686276 4.535911 0.681454 -82.808432 -22.050809 -7.307534 -13.675955 -8.598394 3.666688 15.123652 -6.167610 -0.180127 0.000002 -0.000001 0.000002 0.000000 0.000000 0.000000 -0.000000 0.000000 -0.000000 -0.869060 0.652742 4.425534 71.139714 21.830950 -16.948320 23.773699 25.179815 13.330944 4.385285 7.901615 1.488950 -0.000005 0.000004 -0.000002 -0.000000 -0.000000 -0.000000 0.000000 -0.000000 0.000000 
4.331622 16.327177 10.944234 178.357453 2.514921 -178.739367 -1.376284 -0.688677 -3.989054 -10.789689 -7.242753 -29.236257 0.706460 17.021537 40.436790 0.188983 4.847544 3.372658 -4.615342 -3.892057 -6.565358 0.278063 5.905997 -9.687417 11.163409 -16.617457 -0.826107 15.486984 -2.228128 20.038486 -7.648991 2.062912 -21.414028 -8.026463 4.402341 12.733497 -1.398956 -2.635377 20.303717 1.976648 1.053688 -9.943922 -6.841361 1.690320 10.010286 2.229491 -0.262170 -19.753631 3.005983 -0.563107 19.343266 2.532085 -0.930289 14.089796 8.913289 4.980901 0.646136 -82.952169 -21.315390 -8.215727 -13.675985 -7.875778 3.393169 15.986698 -6.425474 -0.239455 0.000002 -0.000001 0.000002 0.000000 0.000000 0.000000 -0.000000 0.000000 -0.000000 -0.743642 0.680628 4.489341 70.881474 22.764152 -16.746109 23.978854 25.590611 14.221400 4.401707 8.512568 1.597665 -0.000005 0.000004 -0.000002 -0.000000 0.000000 -0.000000 -0.000000 0.000000 0.000000 
4.331096 16.323574 10.788754 178.244657 2.679771 -178.605097 -1.329744 -0.616424 -4.006886 -11.236306 -7.622115 -28.928113 0.343218 16.502146 37.043628 0.353782 4.754689 2.804432 -4.199484 -4.020334 -5.493008 0.337499 6.078390 -9.714225 10.710056 -17.014251 -0.304017 16.057344 -1.174528 20.380472 -8.088175 0.990357 -22.038869 -8.114141 4.817509 12.655045 -1.421896 -2.738225 20.354500 1.938098 1.070596 -10.013154 -6.658684 1.688594 10.096366 1.940353 -0.247667 -19.884079 2.963496 -0.512403 19.255887 2.462328 -0.959319 14.266742 8.469754 5.073767 0.497222 -82.952190 -20.281375 -8.788789 -13.529379 -7.262241 3.136807 16.849283 -6.475491 -0.301320 0.000002 -0.000001 0.000002 -0.000000 0.000000 0.000000 -0.000000 -0.000000 -0.000000 -0.990734 0.659324 4.587105 70.523163 23.488675 -16.630519 24.136764 25.992139 15.982250 3.549902 9.767241 1.739938 -0.000005 0.000004 -0.000002 -0.000000 0.000000 0.000000 0.000000 -0.000000 -0.000000 
